<mxfile host="app.diagrams.net" agent="Mozilla/5.0 (Windows NT 10.0; Win64; x64) AppleWebKit/537.36 (KHTML, like Gecko) Chrome/132.0.0.0 YaBrowser/25.2.0.0 Safari/537.36" version="26.0.16">
  <diagram name="Страница — 1" id="QNt0iAR9Up8ZuE2giHCo">
    <mxGraphModel dx="1050" dy="567" grid="1" gridSize="10" guides="1" tooltips="1" connect="1" arrows="1" fold="1" page="1" pageScale="1" pageWidth="827" pageHeight="1169" math="0" shadow="0">
      <root>
        <mxCell id="0" />
        <mxCell id="1" parent="0" />
        <mxCell id="VMmQLJ_65ULKnSld8dWg-1" value="" style="ellipse;html=1;shape=startState;fillColor=#000000;strokeColor=#ff0000;" vertex="1" parent="1">
          <mxGeometry x="430" y="20" width="30" height="30" as="geometry" />
        </mxCell>
        <mxCell id="VMmQLJ_65ULKnSld8dWg-2" value="" style="edgeStyle=orthogonalEdgeStyle;html=1;verticalAlign=bottom;endArrow=open;endSize=8;strokeColor=#ff0000;rounded=0;entryX=0.5;entryY=0;entryDx=0;entryDy=0;" edge="1" source="VMmQLJ_65ULKnSld8dWg-1" parent="1" target="VMmQLJ_65ULKnSld8dWg-5">
          <mxGeometry relative="1" as="geometry">
            <mxPoint x="445" y="110" as="targetPoint" />
          </mxGeometry>
        </mxCell>
        <mxCell id="VMmQLJ_65ULKnSld8dWg-5" value="Администратор публикует курс" style="swimlane;fontStyle=1;align=center;verticalAlign=middle;childLayout=stackLayout;horizontal=1;startSize=30;horizontalStack=0;resizeParent=0;resizeLast=1;container=0;fontColor=#000000;collapsible=0;rounded=1;arcSize=30;strokeColor=#ff0000;fillColor=#ffffc0;swimlaneFillColor=#ffffc0;dropTarget=0;" vertex="1" parent="1">
          <mxGeometry x="335" y="90" width="220" height="80" as="geometry" />
        </mxCell>
        <mxCell id="VMmQLJ_65ULKnSld8dWg-6" value="do/публикация курса" style="text;html=1;strokeColor=none;fillColor=none;align=center;verticalAlign=middle;spacingLeft=4;spacingRight=4;whiteSpace=wrap;overflow=hidden;rotatable=0;fontColor=#000000;" vertex="1" parent="VMmQLJ_65ULKnSld8dWg-5">
          <mxGeometry y="30" width="220" height="50" as="geometry" />
        </mxCell>
        <mxCell id="VMmQLJ_65ULKnSld8dWg-7" value="" style="edgeStyle=orthogonalEdgeStyle;html=1;verticalAlign=bottom;endArrow=open;endSize=8;strokeColor=#ff0000;rounded=0;entryX=0.5;entryY=0;entryDx=0;entryDy=0;" edge="1" source="VMmQLJ_65ULKnSld8dWg-5" parent="1" target="VMmQLJ_65ULKnSld8dWg-13">
          <mxGeometry relative="1" as="geometry">
            <mxPoint x="445" y="280" as="targetPoint" />
          </mxGeometry>
        </mxCell>
        <mxCell id="VMmQLJ_65ULKnSld8dWg-11" value="[Создан]" style="text;html=1;align=center;verticalAlign=middle;resizable=0;points=[];autosize=1;strokeColor=none;fillColor=none;" vertex="1" parent="1">
          <mxGeometry x="455" y="50" width="70" height="30" as="geometry" />
        </mxCell>
        <mxCell id="VMmQLJ_65ULKnSld8dWg-13" value="Администратор открывает запись" style="swimlane;fontStyle=1;align=center;verticalAlign=middle;childLayout=stackLayout;horizontal=1;startSize=30;horizontalStack=0;resizeParent=0;resizeLast=1;container=0;fontColor=#000000;collapsible=0;rounded=1;arcSize=30;strokeColor=#ff0000;fillColor=#ffffc0;swimlaneFillColor=#ffffc0;dropTarget=0;" vertex="1" parent="1">
          <mxGeometry x="335" y="220" width="220" height="70" as="geometry" />
        </mxCell>
        <mxCell id="VMmQLJ_65ULKnSld8dWg-14" value="do/открытие записи" style="text;html=1;strokeColor=none;fillColor=none;align=center;verticalAlign=middle;spacingLeft=4;spacingRight=4;whiteSpace=wrap;overflow=hidden;rotatable=0;fontColor=#000000;" vertex="1" parent="VMmQLJ_65ULKnSld8dWg-13">
          <mxGeometry y="30" width="220" height="40" as="geometry" />
        </mxCell>
        <mxCell id="VMmQLJ_65ULKnSld8dWg-15" value="[Опубликован]" style="text;html=1;align=center;verticalAlign=middle;resizable=0;points=[];autosize=1;strokeColor=none;fillColor=none;" vertex="1" parent="1">
          <mxGeometry x="460" y="180" width="100" height="30" as="geometry" />
        </mxCell>
        <mxCell id="VMmQLJ_65ULKnSld8dWg-16" value="[Запись открыта]" style="text;html=1;align=center;verticalAlign=middle;resizable=0;points=[];autosize=1;strokeColor=none;fillColor=none;" vertex="1" parent="1">
          <mxGeometry x="455" y="300" width="120" height="30" as="geometry" />
        </mxCell>
        <mxCell id="VMmQLJ_65ULKnSld8dWg-17" value="Пользователь начинает курс" style="swimlane;fontStyle=1;align=center;verticalAlign=middle;childLayout=stackLayout;horizontal=1;startSize=30;horizontalStack=0;resizeParent=0;resizeLast=1;container=0;fontColor=#000000;collapsible=0;rounded=1;arcSize=30;strokeColor=#ff0000;fillColor=#ffffc0;swimlaneFillColor=#ffffc0;dropTarget=0;" vertex="1" parent="1">
          <mxGeometry x="335" y="340" width="220" height="80.5" as="geometry" />
        </mxCell>
        <mxCell id="VMmQLJ_65ULKnSld8dWg-18" value="do/прохождение курса" style="text;html=1;strokeColor=none;fillColor=none;align=center;verticalAlign=middle;spacingLeft=4;spacingRight=4;whiteSpace=wrap;overflow=hidden;rotatable=0;fontColor=#000000;" vertex="1" parent="VMmQLJ_65ULKnSld8dWg-17">
          <mxGeometry y="30" width="220" height="50.5" as="geometry" />
        </mxCell>
        <mxCell id="VMmQLJ_65ULKnSld8dWg-20" value="[В процессе]" style="text;html=1;align=center;verticalAlign=middle;resizable=0;points=[];autosize=1;strokeColor=none;fillColor=none;" vertex="1" parent="1">
          <mxGeometry x="460" y="430" width="90" height="30" as="geometry" />
        </mxCell>
        <mxCell id="VMmQLJ_65ULKnSld8dWg-21" value="[Завершен]" style="text;html=1;align=center;verticalAlign=middle;resizable=0;points=[];autosize=1;strokeColor=none;fillColor=none;" vertex="1" parent="1">
          <mxGeometry x="460" y="554.5" width="90" height="30" as="geometry" />
        </mxCell>
        <mxCell id="VMmQLJ_65ULKnSld8dWg-22" value="[Архивирован]" style="text;html=1;align=center;verticalAlign=middle;resizable=0;points=[];autosize=1;strokeColor=none;fillColor=none;" vertex="1" parent="1">
          <mxGeometry x="460" y="680" width="100" height="30" as="geometry" />
        </mxCell>
        <mxCell id="VMmQLJ_65ULKnSld8dWg-23" value="Пользователь завершил курс" style="swimlane;fontStyle=1;align=center;verticalAlign=middle;childLayout=stackLayout;horizontal=1;startSize=30;horizontalStack=0;resizeParent=0;resizeLast=1;container=0;fontColor=#000000;collapsible=0;rounded=1;arcSize=30;strokeColor=#ff0000;fillColor=#ffffc0;swimlaneFillColor=#ffffc0;dropTarget=0;" vertex="1" parent="1">
          <mxGeometry x="335" y="470" width="220" height="70" as="geometry" />
        </mxCell>
        <mxCell id="VMmQLJ_65ULKnSld8dWg-24" value="do/завершение курса" style="text;html=1;strokeColor=none;fillColor=none;align=center;verticalAlign=middle;spacingLeft=4;spacingRight=4;whiteSpace=wrap;overflow=hidden;rotatable=0;fontColor=#000000;" vertex="1" parent="VMmQLJ_65ULKnSld8dWg-23">
          <mxGeometry y="30" width="220" height="40" as="geometry" />
        </mxCell>
        <mxCell id="VMmQLJ_65ULKnSld8dWg-26" value="Администратор закрыл курс" style="swimlane;fontStyle=1;align=center;verticalAlign=middle;childLayout=stackLayout;horizontal=1;startSize=30;horizontalStack=0;resizeParent=0;resizeLast=1;container=0;fontColor=#000000;collapsible=0;rounded=1;arcSize=30;strokeColor=#ff0000;fillColor=#ffffc0;swimlaneFillColor=#ffffc0;dropTarget=0;" vertex="1" parent="1">
          <mxGeometry x="335" y="600" width="220" height="70" as="geometry" />
        </mxCell>
        <mxCell id="VMmQLJ_65ULKnSld8dWg-27" value="do/положить курс в архив" style="text;html=1;strokeColor=none;fillColor=none;align=center;verticalAlign=middle;spacingLeft=4;spacingRight=4;whiteSpace=wrap;overflow=hidden;rotatable=0;fontColor=#000000;" vertex="1" parent="VMmQLJ_65ULKnSld8dWg-26">
          <mxGeometry y="30" width="220" height="40" as="geometry" />
        </mxCell>
        <mxCell id="VMmQLJ_65ULKnSld8dWg-29" value="" style="ellipse;html=1;shape=endState;fillColor=#000000;strokeColor=#ff0000;" vertex="1" parent="1">
          <mxGeometry x="430" y="720" width="30" height="30" as="geometry" />
        </mxCell>
        <mxCell id="VMmQLJ_65ULKnSld8dWg-35" value="" style="edgeStyle=orthogonalEdgeStyle;html=1;verticalAlign=bottom;endArrow=open;endSize=8;strokeColor=#ff0000;rounded=0;exitX=0.5;exitY=1;exitDx=0;exitDy=0;" edge="1" parent="1" source="VMmQLJ_65ULKnSld8dWg-14" target="VMmQLJ_65ULKnSld8dWg-17">
          <mxGeometry relative="1" as="geometry">
            <mxPoint x="455" y="230" as="targetPoint" />
            <mxPoint x="455" y="180" as="sourcePoint" />
          </mxGeometry>
        </mxCell>
        <mxCell id="VMmQLJ_65ULKnSld8dWg-36" value="" style="edgeStyle=orthogonalEdgeStyle;html=1;verticalAlign=bottom;endArrow=open;endSize=8;strokeColor=#ff0000;rounded=0;exitX=0.5;exitY=1;exitDx=0;exitDy=0;entryX=0.5;entryY=0;entryDx=0;entryDy=0;" edge="1" parent="1" source="VMmQLJ_65ULKnSld8dWg-18" target="VMmQLJ_65ULKnSld8dWg-23">
          <mxGeometry relative="1" as="geometry">
            <mxPoint x="455" y="350" as="targetPoint" />
            <mxPoint x="455" y="300" as="sourcePoint" />
          </mxGeometry>
        </mxCell>
        <mxCell id="VMmQLJ_65ULKnSld8dWg-37" value="" style="edgeStyle=orthogonalEdgeStyle;html=1;verticalAlign=bottom;endArrow=open;endSize=8;strokeColor=#ff0000;rounded=0;exitX=0.5;exitY=1;exitDx=0;exitDy=0;entryX=0.5;entryY=0;entryDx=0;entryDy=0;" edge="1" parent="1" source="VMmQLJ_65ULKnSld8dWg-24" target="VMmQLJ_65ULKnSld8dWg-26">
          <mxGeometry relative="1" as="geometry">
            <mxPoint x="455" y="480" as="targetPoint" />
            <mxPoint x="455" y="431" as="sourcePoint" />
          </mxGeometry>
        </mxCell>
        <mxCell id="VMmQLJ_65ULKnSld8dWg-39" value="" style="edgeStyle=orthogonalEdgeStyle;html=1;verticalAlign=bottom;endArrow=open;endSize=8;strokeColor=#ff0000;rounded=0;exitX=0.5;exitY=1;exitDx=0;exitDy=0;entryX=0.5;entryY=0;entryDx=0;entryDy=0;" edge="1" parent="1" source="VMmQLJ_65ULKnSld8dWg-27" target="VMmQLJ_65ULKnSld8dWg-29">
          <mxGeometry relative="1" as="geometry">
            <mxPoint x="455" y="610" as="targetPoint" />
            <mxPoint x="455" y="550" as="sourcePoint" />
          </mxGeometry>
        </mxCell>
      </root>
    </mxGraphModel>
  </diagram>
</mxfile>
